<?xml version="1.0" encoding="UTF-8"?>
<!-- FastForge store icon: matches in-app timer (VividCerulean), progress bar
     (LightGray + JaegerGreen), and pixel-style FF monogram. -->
<svg xmlns="http://www.w3.org/2000/svg" width="144" height="144" viewBox="0 0 144 144">
  <rect width="144" height="144" rx="32" fill="#00AAFF"/>
  <!-- Pixel "FF" monogram (FastForge), chunky grid like on-watch text -->
  <g fill="#FFFFFF">
    <!-- left F -->
    <rect x="28" y="20" width="9" height="9"/><rect x="37" y="20" width="9" height="9"/><rect x="46" y="20" width="9" height="9"/><rect x="55" y="20" width="9" height="9"/>
    <rect x="28" y="29" width="9" height="9"/><rect x="28" y="38" width="9" height="9"/><rect x="28" y="47" width="9" height="9"/><rect x="28" y="56" width="9" height="9"/><rect x="28" y="65" width="9" height="9"/>
    <rect x="37" y="38" width="9" height="9"/><rect x="46" y="38" width="9" height="9"/>
    <!-- right F (gap 1 cell) -->
    <rect x="73" y="20" width="9" height="9"/><rect x="82" y="20" width="9" height="9"/><rect x="91" y="20" width="9" height="9"/><rect x="100" y="20" width="9" height="9"/>
    <rect x="73" y="29" width="9" height="9"/><rect x="73" y="38" width="9" height="9"/><rect x="73" y="47" width="9" height="9"/><rect x="73" y="56" width="9" height="9"/><rect x="73" y="65" width="9" height="9"/>
    <rect x="82" y="38" width="9" height="9"/><rect x="91" y="38" width="9" height="9"/>
  </g>
  <!-- Horizontal progress bar (timer screen) -->
  <rect x="18" y="98" width="108" height="16" rx="3" fill="#AAAAAA"/>
  <rect x="18" y="98" width="78" height="16" rx="3" fill="#00AA55"/>
  <!-- Playhead / divider like on-watch -->
  <rect x="92" y="96" width="3" height="20" fill="#000000"/>
</svg>
